<svg width="195" height="250" viewBox="0 0 195 250" fill="none" xmlns="http://www.w3.org/2000/svg">
<g clip-path="url(#clip0_49_11)">
<path d="M95.5 3.89995C92.5 13.6999 76.9 37.2999 61.7 55.3999C57.3 60.5999 49.3 70.0999 44 76.3999C20 104.9 9.1 121.9 2.9 140.4C0.4 147.8 0 150.4 0 160.5V172.1L4.2 180.6C9.3 190.7 16.1 197.6 26 202.5C42 210.4 65.1 205.5 81.5 190.7C88.7 184.2 89.5 184.5 89.5 193.8C89.5 202.7 87 211.5 80.5 225C76.2 233.9 73.1 238.8 69 243.2L63.4 249.3L95.7 249.6C125.4 249.9 132.5 249.5 128.2 247.8C124.4 246.4 114.4 230.8 109.3 218.4C104.3 206.3 103.3 201.8 103.7 194.4C104.2 185.8 105.6 183.9 108.6 187.8C111.3 191.3 119.7 197.5 126.1 200.7C135.4 205.4 141.9 206.7 152.8 206.1C161.4 205.6 163.6 205.1 169.2 202.3C176.9 198.4 186.2 188.9 189.8 181.2C195 170.2 195.7 155.6 191.5 142.2C189.1 134.2 181.2 118.8 174.6 109C168.2 99.5999 157.4 86.0999 140.5 66.3999C117.3 39.3999 105.1 21.6999 99.5 6.99995L96.8 -5.25488e-05L95.5 3.89995ZM97.9 19.6999C98.7 23.8999 105.5 37.9999 109.7 44.1999C114.5 51.2999 126.6 65.2999 138.6 77.7999C161.4 101.6 171.4 114.6 178.6 129.8C184.2 141.9 185.8 148.9 185.3 160.3C185 168.6 184.5 170.9 181.7 176.9C176.9 187 168.6 195 160.3 197.5C154.5 199.2 142.5 198.7 136 196.4C124.7 192.5 112.7 183 108.8 174.9C107.9 173 106.9 171.4 106.5 171.4C105.4 171.4 99.5 179.8 98.3 183.1C97.6 184.9 96.8 186.4 96.5 186.4C96.2 186.4 95.1 184.6 94.1 182.3C93.1 180.1 90.9 176.7 89.2 174.8L86.2 171.3L83.4 176.2C75.8 189.6 56.8 199.4 40.6 198.2C29.3 197.3 20 191.2 13.8 180.3C8.5 171 6.9 155 10 142.9C13.9 127.6 26 108.4 43.1 90.0999C78.8 51.8999 88 39.6999 93.5 23.5999C94.9 19.5999 96.3 16.3999 96.6 16.3999C97 16.3999 97.6 17.8999 97.9 19.6999ZM97.9 199.2C99 201.3 99.1 203.1 98.4 207.2C97.2 213.5 98.4 218.6 102.8 226.4C106 232.2 110.9 239 113.5 241.2C114.8 242.4 114.6 242.5 112.5 241.9C101.3 239 90 239 80.6 241.9C78.6 242.6 78.9 241.9 82.8 236.8C92.9 223.4 96.3 214.6 94.4 206.9C93.5 203.4 93.5 201.7 94.5 199.4C95.2 197.7 95.9 196.4 96.1 196.4C96.3 196.4 97.1 197.6 97.9 199.2Z" fill="black"/>
<path d="M97.5001 27.5C97.5001 30.9 101.8 41.8 105.7 48.2C114.3 62.3 134.7 90.6 146.8 104.9C166.2 127.9 174.1 145 173.3 162.2C173 169.1 172.4 172.2 170.1 177.2C166.6 184.7 159.1 192 153.9 193C148.7 194 140.5 193 136.2 190.9C127.8 186.9 118.4 175.8 113.1 163.6C112 161.3 110.9 159.4 110.5 159.4C110.2 159.4 107.3 162.5 104.1 166.4C101 170.2 97.8001 173.4 97.1001 173.4C95.7001 173.4 89.7001 167.3 85.5001 161.6C84.2001 159.9 82.9001 158.4 82.6001 158.4C82.2001 158.4 81.0001 161 79.7001 164.1C74.7001 177 63.4001 189.6 54.5001 192.3C48.9001 193.9 40.6001 193.6 36.0001 191.5C27.1001 187.5 20.7001 176.1 19.8001 162.9C18.6001 145.9 26.3001 129.5 48.0001 102.4C74.2001 69.5 91.0001 44 94.4001 32C95.9001 26.2 95.0001 26.4 91.9001 32.6C84.8001 46.7 73.8001 60.8 48.1001 88.9C31.8001 106.7 25.5001 115.2 18.4001 129.1C10.2001 145.2 8.50006 159.8 13.3001 173.4C18.6001 188.4 29.1001 196.4 43.5001 196.4C59.4001 196.4 77.7001 185.1 82.1001 172.5C83.1001 169.7 84.5001 167.4 85.1001 167.4C86.5001 167.4 89.7001 170.9 93.3001 176.7L96.3001 181.5L98.6001 177.7C101.8 172.5 106.5 167.4 108 167.4C108.7 167.4 109.8 169.5 110.4 172C113.8 185.3 140.3 199.7 155.2 196.3C165.2 194.1 174.1 187.4 178.4 178.6C184.1 167.2 184.7 155.1 180.2 141.9C173.8 123.3 164.2 109.2 140.9 83.9C115.5 56.4 108 46.8 101.3 33.5C99.3001 29.3 97.5001 26.6 97.5001 27.5Z" fill="black"/>
<path d="M92.8001 47.7999C87.8001 59.0999 87.7001 63.1999 91.9001 81.7999C93.9001 90.5999 95.5001 99.4999 95.5001 101.6C95.5001 107.3 97.1001 105.4 97.9001 98.8999C98.2001 95.7999 99.9001 86.9999 101.7 79.1999C105.2 63.1999 105 58.6999 100.1 47.9999C98.7001 44.8999 97.5001 41.8999 97.5001 41.3999C97.5001 38.6999 95.7001 41.1999 92.8001 47.7999Z" fill="black"/>
<path d="M83.4999 58C82.2999 59.9 81.3999 61.6 81.5999 61.8C81.7999 62 82.9999 62.7 84.2999 63.3C86.3999 64.4 86.4999 64.3 86.4999 59.4C86.4999 56.7 86.2999 54.4 86.0999 54.4C85.8999 54.4 84.6999 56 83.4999 58Z" fill="black"/>
<path d="M106.5 59.8998C106.5 63.3998 107.7 64.1998 110.4 62.4998C111.5 61.7998 111.4 61.1998 110 58.9998C107.6 55.3998 106.5 55.6998 106.5 59.8998Z" fill="black"/>
<path d="M79.1 67.9999C76.2 70.8999 77.1 76.5999 81.5 82.9999C83.7 86.2999 86.6 90.1999 88 91.8999L90.6 94.8999L90 90.3999C88 75.5999 86 68.7999 83.5 67.3999C81.1 66.0999 80.9 66.0999 79.1 67.9999Z" fill="black"/>
<path d="M108.7 68.3998C107.7 69.4998 106.3 72.2998 105.6 74.4998C104.5 78.0998 102.4 93.5998 102.9 94.0998C103.3 94.5998 113.6 80.1998 114.5 77.7998C117.6 69.7998 113.5 63.2998 108.7 68.3998Z" fill="black"/>
<path d="M117.5 73.0998C117.5 74.6998 117.2 76.9998 116.9 78.3998C116.3 80.4998 116.5 80.6998 117.6 79.5998C118.3 78.9998 119.7 78.3998 120.7 78.3998C123 78.3998 122.9 78.2998 120.4 73.9998C117.9 69.6998 117.5 69.5998 117.5 73.0998Z" fill="black"/>
<path d="M72.0999 74.6999C68.9999 78.6999 68.7999 79.7999 71.3999 79.0999C72.3999 78.8999 73.8999 79.0999 74.7999 79.4999C76.0999 80.2999 76.1999 79.7999 75.7999 76.0999C75.4999 73.7999 75.0999 71.7999 74.9999 71.5999C74.7999 71.3999 73.4999 72.7999 72.0999 74.6999Z" fill="black"/>
<path d="M117.9 82.8999C110.4 85.9999 100.1 101.9 99 111.9C98.4 117.3 98.6 117.1 102.4 107.9C106.2 98.5999 115.6 89.8999 122.9 88.9999C127.8 88.3999 128.1 87.9999 126.2 85.0999C124.2 81.9999 121.6 81.2999 117.9 82.8999Z" fill="black"/>
<path d="M67.9001 84.9C65.4001 87.4 65.5001 90 68.1001 89C74.3001 86.6 92.5001 105.3 92.5001 113.9C92.5001 114.7 93.0001 115.6 93.7001 116C95.7001 117.3 93.7001 108.4 90.4001 101.6C86.5001 93.6 76.3001 82.4 72.8001 82.4C71.5001 82.4 69.3001 83.5 67.9001 84.9Z" fill="black"/>
<path d="M62.9 94.7999C61.2 95.5999 58.5 97.8999 56.9 99.9999C53 105 52.8 113.2 56.4 118.1C59.1 121.7 64 124.4 67.8 124.4C70.4 124.4 74.5 120.3 74.5 117.8C74.5 115.5 70.7 112.4 68.8 113.1C67.2 113.7 67.1 113.6 68.5 112C70.8 109.1 77.3 110.5 81.2 114.8C85.7 119.7 88 128 86.4 133.3C84.5 139.5 81.7 141.6 73.8 142.3C66.2 143 64.1 143.9 64.9 146.1C65.2 146.9 65 147.2 64.5 146.9C63.2 146.1 63.2 142.8 64.5 140.4C65 139.4 67.8 137.8 70.7 136.9C78.1 134.5 80.5 131.6 80.5 125C80.5 121 80 119 78.5 117.3C77.2 115.8 76.5 115.5 76.7 116.4C77.5 121.9 72.9 126.4 66.3 126.4C58.9 126.4 51.5 117.4 51.5 108.5C51.5 105.5 51.1 104.4 50.3 104.6C47.5 105.5 35.1 123.5 30 133.9C23.8 146.7 22.5 151.6 22.5 161.6V168.9L25.1 163.4C29.4 154.1 34.1 150.4 41.7 150.4C44.3 150.4 47.2 151.2 48.9 152.3C50.6 153.4 52.2 154.1 52.7 153.8C54 152.9 53.6 140.6 52.1 136.9C50.3 132.6 46.3 130 43 130.8C41.1 131.3 40.7 131.1 41.1 129.9C42 127.6 46.2 127 48.9 128.8C51.2 130.3 51.4 130.3 51.7 128.1C52 126.1 52.2 126.2 54 129.4C55.6 132.2 56 134.8 55.9 142.9C55.9 148.4 55.4 156.8 54.9 161.7C54.1 169.4 53.6 170.8 51 173.4C46.8 177.6 42.9 178.1 38.5 175.2C32.1 170.8 31.8 163.6 38.1 160.7C41.4 159.1 41.8 159.1 45.1 160.9C48.1 162.5 48.8 162.6 49.6 161.3C50.9 159.2 50.7 157.9 48.7 156.1C42 150 30.1 156.1 28.8 166.3C27.7 174.3 34.6 181.4 43.4 181.4C53.5 181.4 61.1 171.7 58.1 162.6C57.3 160.1 58.2 159.8 61.1 161.8C63 163.1 63.5 163 67.3 159.6C69.6 157.6 71.6 154.8 71.8 153.4C72.1 151.4 72.3 151.5 72.4 154.2C72.6 158.7 67.4 168.6 62 173.9C51 185 38.9 186.1 29.8 176.9C25.3 172.4 24.9 172.6 26.5 178.6C27.7 183 33.8 188.7 39 190.4C44.6 192.2 53.6 191.1 59.1 187.9C66.1 183.8 76 169.2 79.4 157.9C80.1 155.7 80.9 153.3 81.1 152.5C81.4 151.6 83.8 154.5 87.1 159.5C90.2 164.1 93.6 168.8 94.7 169.9C96.6 171.9 96.7 171.9 100.6 167.4C102.7 164.9 105.9 160.3 107.6 157.1C109.2 154 110.8 151.4 110.9 151.4C111.1 151.4 112.2 154.2 113.5 157.6C118.5 171.4 127.8 183.9 136.6 188.5C142.7 191.7 154.1 191.9 158.2 188.8C162.2 185.8 166.4 179.5 167.1 175.4L167.7 171.9L165.7 175C162 180.7 157.8 182.9 150.5 182.9C142.6 182.8 137.8 180.6 131.1 173.8C125.7 168.3 120.5 158.4 120.6 154L120.7 150.9L121.6 154C122.1 155.7 124.3 158.5 126.5 160.3C130.3 163.4 130.8 163.5 132.4 162C134.9 159.7 136.8 159.9 135.5 162.3C134.1 165.1 134.3 170 136 173.4C138.1 177.5 141.8 180 147.5 181.4C151.8 182.4 152.9 182.4 156.2 180.7C161.1 178.3 164.5 173.2 164.5 168.2C164.5 163.6 163.3 161 159.2 156.6C156.7 154.1 155.3 153.4 152.2 153.4C148.1 153.4 142.5 156 142.5 158C142.5 160.5 145.3 161.7 148.5 160.5C154.1 158.6 158.5 161.7 158.5 167.6C158.5 175.1 151.2 178.9 143.8 175.2C138.9 172.8 138.3 170.4 135.8 146.2C135.1 139.2 135.9 134.9 138.6 130.5C140.1 127.9 140.9 127.4 141.5 128.4C142.2 129.5 142.6 129.5 143.9 128.5C145.9 126.8 150.5 127.5 151.9 129.6C153.2 131.8 152.2 132.8 149.8 131.6C147.1 130.2 144.1 131.8 141.4 136.1C139.5 139.1 139 141.3 139 146.6C139 150.2 139.3 153.5 139.6 153.9C140 154.2 141.9 153.5 143.8 152.4C149 149.3 155.6 149.5 160 152.8C164.2 156 167.2 160.1 168.9 165.1L170.3 168.9L170.9 164.4C172.4 155.3 166.8 138.1 158.4 125.7C152.7 117.2 143 104.4 142.3 104.4C141.8 104.4 141.5 106.4 141.5 108.9C141.5 120.4 132.3 128.6 122.1 126C119.5 125.4 115 119.1 116 117.4C116.3 116.9 116.2 116.4 115.8 116.4C113.6 116.4 112.5 119.2 112.5 124.5C112.5 131.6 114.7 134.6 121.4 136.9C127.7 139 130 141.4 129 145.1C128.3 147.5 128.1 147.6 127.7 145.9C127.1 143.1 125.7 142.4 120.4 142.4C113.4 142.4 109.9 140.8 107.9 136.6C104 128.4 106.7 117.6 113.9 112.6C117.2 110.3 122.9 109.6 124 111.4C124.3 111.9 123.9 112.4 123.1 112.4C120.9 112.4 118.3 116.7 119.1 119C120.4 122.7 122.8 124.4 126.4 124.4C133.5 124.4 138.5 118.1 138.5 109.3C138.5 99.9999 133 94.3999 123.9 94.3999C118.6 94.3999 115.7 95.8999 110.7 101.4C107.4 105.1 102.7 115.3 101.1 122.5C98.8 132.3 97.6 148.1 98.7 152.2C99.4 154.7 99.3 156.4 98.4 158.1C96.8 161 96.2 161 94.6 158C93.5 156.1 93.5 154.9 94.5 152C95.7 148.2 95.4 144.1 92.9 127.6C91 115.8 88.4 108.7 83.4 102.4C77.4 94.7999 69.4 91.7999 62.9 94.7999Z" fill="black"/>
<path d="M95 120.4C94.4 122.3 95.2 129 96.3 130.9C97.3 132.5 99.2 122 98.3 120.1C97.2 117.8 95.8 117.9 95 120.4Z" fill="black"/>
<path d="M37.5 164.3C37 165.4 36.5 167.1 36.5 168.2C36.5 170.8 40.6 174.4 43.8 174.4C47.5 174.4 51.6 170.5 51.8 166.9C52.1 162.7 50.4 162.4 48 166.2C46.7 168.3 45.3 169.3 44 169.1C41.5 168.8 40.5 164.4 43 164.4C43.9 164.4 44.3 163.9 44 163.4C42.9 161.7 38.6 162.3 37.5 164.3Z" fill="black"/>
<path d="M140.5 165.3C140.5 169.5 144.9 174.4 148.6 174.4C151.9 174.4 156.5 170.6 156.5 167.9C156.5 164.6 154.5 162.4 151.5 162.4C148.3 162.4 147.5 163.8 150 164.8C152 165.5 151.9 168 149.8 168.9C148.5 169.3 147.2 168.5 145.2 166C141.7 161.6 140.5 161.5 140.5 165.3Z" fill="black"/>
<path d="M92.9999 225C91.4999 228.6 89.1999 233 88.0999 234.7L85.8999 237.9H96.0999H106.2L103.9 234.4C102.6 232.5 100.6 228.1 99.3999 224.7C98.2999 221.2 96.9999 218.4 96.5999 218.4C96.0999 218.4 94.4999 221.4 92.9999 225Z" fill="black"/>
</g>
<defs>
<clipPath id="clip0_49_11">
<rect width="194.23" height="249.69" fill="white"/>
</clipPath>
</defs>
</svg>
