<svg version="1.1" id="Layer_1" xmlns="http://www.w3.org/2000/svg" xmlns:xlink="http://www.w3.org/1999/xlink" x="0px" y="0px"
	 width="100%" viewBox="0 0 720 1024" enable-background="new 0 0 720 1024" xml:space="preserve">
<path fill="#000000" opacity="1.000000" stroke="none" 
	d="
M579.756348,552.466675 
	C577.550049,544.256470 573.802673,537.440369 567.156799,530.980164 
	C565.612366,540.126465 560.657227,547.167603 560.985718,555.902466 
	C561.209595,561.856567 559.744385,567.663574 554.829224,572.735229 
	C552.878540,568.155579 554.734680,562.667114 550.206055,560.020264 
	C529.858032,576.318176 526.990051,599.222473 526.457886,623.419189 
	C561.803955,590.136414 603.634583,563.952576 632.524353,524.141479 
	C635.058533,525.196411 634.478333,526.637878 634.271729,527.881226 
	C630.065613,553.195007 627.739075,578.727417 625.201294,604.241638 
	C622.963379,626.741760 620.725830,649.232910 615.591797,671.357117 
	C611.159302,690.458557 603.312622,707.859863 592.042969,723.807617 
	C591.565186,724.483765 590.995117,725.117371 591.430115,726.674927 
	C598.422791,727.978760 605.762390,729.173828 612.825073,731.590332 
	C631.105103,737.845093 645.101685,749.052429 652.441589,767.131409 
	C658.067627,780.988770 659.090759,795.153076 649.194763,807.889587 
	C644.366272,814.104004 637.491211,816.660217 629.633850,815.244263 
	C621.654419,813.806274 617.541016,805.892700 621.029602,799.307495 
	C621.972778,799.012390 622.588074,799.577637 623.233887,800.113525 
	C626.619080,802.922668 630.333984,804.146973 634.154724,801.266602 
	C637.347107,798.859863 639.338196,795.743591 638.212646,791.318115 
	C636.971008,786.436279 633.531067,784.037476 629.024231,783.311829 
	C621.673523,782.128235 615.559265,785.183533 610.617371,790.308289 
	C604.379211,796.776917 598.583435,803.669556 592.453064,810.245178 
	C570.243286,834.068481 542.058167,845.438416 510.350250,849.223450 
	C493.334442,851.254639 476.224640,852.520325 459.631409,857.281738 
	C416.469879,869.666931 389.334747,898.048462 376.347778,940.541626 
	C374.063049,948.017090 372.303619,955.652893 370.268158,963.205627 
	C370.149445,963.646240 369.729340,964.005676 369.412201,964.455872 
	C366.720734,963.858337 367.094574,961.509644 366.617004,959.720947 
	C361.324738,939.898438 355.019562,920.548340 344.015564,902.927856 
	C329.410492,879.541138 309.003632,864.178833 282.703888,856.243896 
	C266.222504,851.271240 249.297485,850.208923 232.300766,850.342346 
	C209.262344,850.523254 186.308670,850.336548 163.858734,844.260864 
	C134.321060,836.266968 106.936607,824.232239 85.915451,801.018066 
	C75.640251,789.670776 69.079765,776.830261 71.552292,760.617432 
	C73.659706,746.798706 83.498497,737.653381 96.031998,738.882385 
	C102.993828,739.565063 109.236221,745.637207 109.254234,751.668274 
	C109.260048,753.616882 108.842651,755.302124 107.164909,756.473694 
	C105.276649,757.792175 104.084633,756.324951 102.794807,755.343628 
	C99.455566,752.802917 95.697632,752.016174 92.059219,754.082275 
	C88.282082,756.227173 86.737312,759.966187 87.136032,764.313904 
	C87.839386,771.983459 92.083145,777.698853 97.974548,782.081482 
	C109.703186,790.806519 123.565506,793.048218 137.638519,793.822021 
	C164.259613,795.285767 190.812408,796.907471 216.642166,804.350220 
	C256.276306,815.770569 293.467590,832.287659 327.126526,856.437256 
	C306.130005,827.459167 279.774811,805.181091 246.368073,791.543640 
	C213.466263,778.112305 179.004974,774.819214 143.796112,775.370972 
	C161.493088,768.500977 179.809692,767.181702 198.402710,767.831787 
	C217.242050,768.490540 235.038605,773.732239 252.881897,780.537476 
	C251.972275,778.293396 249.115234,777.894592 249.877518,774.544922 
	C270.393555,780.673035 287.067902,792.807312 303.415924,806.246033 
	C301.961151,804.301636 300.513885,802.351562 299.049591,800.414368 
	C297.442871,798.288696 295.872101,796.133179 294.196899,794.062439 
	C275.544617,771.005493 252.991989,753.907104 223.239639,747.970337 
	C200.632660,743.459351 178.804977,746.976807 157.576599,755.050781 
	C146.075302,759.425110 134.824112,764.452942 123.396385,769.026855 
	C118.232346,771.093750 112.814003,772.152466 107.248817,770.879150 
	C105.638611,770.510681 103.427063,770.733337 102.860535,768.043701 
	C122.950836,760.942261 139.982162,747.571960 161.611328,740.932617 
	C149.392456,724.527344 137.627197,709.307312 130.699005,691.015198 
	C128.447510,705.907837 134.188339,719.136597 139.498001,732.381226 
	C137.169250,733.082703 136.289185,732.033203 135.362915,731.069702 
	C120.116791,715.211182 110.137489,696.565186 111.259209,674.351990 
	C111.785347,663.932861 109.612686,657.363525 101.339218,651.427673 
	C94.059692,646.205139 89.496925,638.209473 84.376198,629.281677 
	C83.966354,644.307373 89.190361,655.569702 98.000900,665.487915 
	C100.091309,667.841125 104.446571,670.104431 102.331711,673.479431 
	C100.316689,676.694946 96.164009,674.133911 93.135277,673.322205 
	C81.664871,670.248047 75.728638,661.416565 71.830193,651.187439 
	C61.059597,622.926697 71.243408,589.109863 95.734596,570.164795 
	C98.503296,568.023071 100.880127,565.024475 104.606171,564.550781 
	C105.652359,565.667664 105.531219,566.584595 104.949921,567.520935 
	C98.550484,577.828735 104.256416,588.762695 113.928970,593.763855 
	C123.437492,598.680298 133.883392,600.058472 144.215317,601.783142 
	C163.899963,605.069031 182.862671,610.455444 200.360123,620.330505 
	C201.368744,620.899780 202.452560,621.350586 203.536530,621.764465 
	C203.969254,621.929626 204.497452,621.844849 205.994598,621.934509 
	C204.677185,606.076172 203.295883,590.612366 194.265503,575.805115 
	C189.857849,584.574036 192.734695,591.722961 196.178665,599.127319 
	C189.045486,597.370117 184.970932,592.627319 181.823975,586.659973 
	C178.647324,580.636414 178.620804,573.910767 177.361816,566.849487 
	C171.564178,569.883850 169.094528,574.951660 166.779114,580.023865 
	C164.439774,585.148438 165.194473,590.641113 165.554306,596.277405 
	C158.113754,591.946899 155.492523,584.868591 154.127167,577.266174 
	C152.708038,569.364136 154.809052,561.781250 158.325989,552.979004 
	C144.106598,559.406494 131.245880,560.682007 118.968826,551.197449 
	C129.348373,549.264221 139.669006,547.844299 146.443909,538.386292 
	C152.664856,529.701538 156.474030,520.241028 158.377899,509.115143 
	C154.138535,510.065369 151.781769,512.481934 149.059814,514.167664 
	C133.288910,523.934387 113.960648,521.724487 103.113266,508.852295 
	C100.495522,505.745911 99.911552,504.485260 99.495422,500.992920 
	C101.577560,499.700714 102.885216,501.549713 104.386887,502.308411 
	C113.916237,507.122925 125.608154,505.636719 132.750763,498.767120 
	C135.441284,496.179443 135.837646,494.579224 132.434982,491.765045 
	C117.112007,479.092163 103.441322,464.796112 91.965752,448.481232 
	C86.488708,440.694397 85.764084,432.095795 87.808601,423.162323 
	C90.808975,410.052185 91.881599,396.905396 89.957520,383.523651 
	C89.471107,380.140686 89.884659,376.628357 89.884659,373.218994 
	C85.175148,373.968384 82.587135,377.890533 81.453857,385.601868 
	C80.562782,391.665039 84.598930,396.235260 86.066216,401.532745 
	C83.669197,403.477478 82.099129,401.667816 80.561111,400.688568 
	C70.152390,394.061432 66.316048,380.379974 70.630051,366.845917 
	C74.923264,353.377136 84.141685,343.526215 95.583122,336.621521 
	C108.497803,328.827728 112.784698,318.273285 111.887230,304.102814 
	C111.246025,293.978699 111.522377,283.812500 111.080124,273.653809 
	C109.704498,242.054901 121.287018,216.675049 147.930206,198.468307 
	C159.993820,190.224564 173.192902,184.392105 186.141785,177.955383 
	C187.292862,177.383179 188.428284,176.779495 190.436157,175.744446 
	C186.815857,174.669586 184.497345,176.270401 182.092545,176.771439 
	C179.150467,177.384415 176.600922,179.973572 173.148819,177.918900 
	C172.019394,177.246643 170.797699,178.884125 169.828629,179.739319 
	C159.330551,189.003952 146.304398,194.927017 136.420914,205.009537 
	C135.902969,205.537888 135.009018,205.697601 134.310516,206.019531 
	C132.223160,204.003952 133.882782,202.443161 134.557053,200.937836 
	C142.279541,183.697464 155.478897,171.371567 171.179718,161.739136 
	C177.296509,157.986496 180.356812,153.366318 181.807175,146.610550 
	C185.565567,129.103882 193.592270,113.708794 208.809616,103.784683 
	C216.280807,98.912292 221.173126,93.042480 225.316681,85.487717 
	C232.337494,72.686905 244.469650,65.984131 257.588531,60.863342 
	C261.620911,59.289364 265.631897,57.642628 269.732635,56.267635 
	C272.882690,55.211399 274.393707,52.691830 276.067352,50.198273 
	C284.776855,37.222031 296.785065,28.737476 311.682312,24.281237 
	C313.498871,23.737846 315.440979,22.745306 317.622040,24.128494 
	C317.792847,26.821484 315.541565,28.080383 314.048309,29.664845 
	C307.681824,36.420063 302.663330,44.017906 299.738647,52.842262 
	C295.161194,66.653282 300.671417,77.566353 310.291412,86.959686 
	C313.069946,89.672707 316.086029,92.417709 320.157043,93.731674 
	C320.082428,89.599159 316.497101,86.645226 316.752380,81.764587 
	C323.462128,84.791870 327.553894,90.907906 334.850555,93.982506 
	C329.816956,70.553467 333.425446,51.197662 356.548889,38.707626 
	C340.864594,39.768627 330.203735,46.619892 323.087433,59.565929 
	C320.932800,51.673332 324.781647,45.162582 327.465454,37.194107 
	C315.683563,45.441761 312.279236,56.780884 310.684723,69.298630 
	C307.155334,63.851494 307.064392,57.967098 308.017334,52.242367 
	C311.332245,32.327991 326.428101,20.010462 346.739594,19.730600 
	C360.761780,19.537399 373.243866,23.930050 384.892426,31.273729 
	C387.034241,32.624004 388.994843,33.996067 391.783691,33.432354 
	C417.439026,28.246571 440.149841,35.522816 461.269745,49.788570 
	C479.457062,62.073467 493.305267,78.192719 503.758545,97.334404 
	C508.304321,105.658485 512.463562,114.193573 517.003479,122.520988 
	C521.577698,130.911331 529.129822,134.457886 538.383789,134.986847 
	C547.127869,135.486649 555.630981,133.489639 564.172607,132.272430 
	C590.683044,128.494598 615.493958,145.963669 619.694275,172.361359 
	C621.666443,184.755585 620.072571,196.728729 610.632446,206.286301 
	C603.316650,213.693176 594.590149,216.892227 584.266663,214.233963 
	C572.373230,211.171417 565.625000,197.793594 570.697266,187.654938 
	C574.088684,180.875885 582.610535,177.835388 587.974792,181.519058 
	C587.599487,183.456680 585.718933,183.216232 584.488037,183.876343 
	C578.450562,187.114044 576.210022,193.883453 579.325439,199.605637 
	C582.398315,205.249680 589.401306,207.171097 595.304932,204.000885 
	C598.801636,202.123184 601.570068,199.512619 602.913757,195.732208 
	C606.414185,185.884323 606.343384,176.014481 601.776550,166.581024 
	C596.117981,154.892563 584.918640,150.193649 572.531494,154.109161 
	C561.489685,157.599442 551.872498,164.090317 541.687683,169.375076 
	C539.093140,170.721329 538.654602,172.602097 540.910583,174.949509 
	C556.370789,191.036209 564.887268,210.706543 570.193848,232.015320 
	C571.243225,236.229080 572.680847,240.311356 574.587280,244.209885 
	C579.242859,253.729767 591.765930,259.404510 601.998718,256.684021 
	C610.359131,254.461319 612.171753,248.358719 606.468323,241.722443 
	C605.009094,240.024551 602.572998,239.054291 602.277893,235.777206 
	C608.754700,234.848663 614.069946,237.323654 618.536194,241.308258 
	C623.449524,245.691757 625.258606,251.566086 623.941589,258.099792 
	C622.237488,266.554169 616.275574,271.451965 609.065308,275.162659 
	C604.059448,277.738892 598.568909,279.031921 592.394409,280.887238 
	C604.337158,292.210571 617.174438,296.254303 632.848022,290.885590 
	C629.555603,297.194550 624.275391,300.560577 617.945374,302.612122 
	C611.764771,304.615204 605.275452,304.950989 599.057373,305.670471 
	C598.121155,307.727905 599.187500,308.942780 600.004333,310.127319 
	C607.584351,321.119598 614.344727,332.512451 619.231445,345.035217 
	C622.843384,354.291016 634.762695,355.212799 640.821838,347.130310 
	C641.991211,345.570435 642.282532,343.379822 644.232849,342.302582 
	C646.507080,342.947235 646.103882,344.790558 646.015686,346.354675 
	C645.509705,355.322968 641.771606,362.554413 633.621277,366.651398 
	C629.978638,368.482483 629.295166,370.611816 630.202698,374.140045 
	C631.209961,378.055908 631.009277,382.067322 630.701416,386.071533 
	C629.842285,397.245026 629.792358,408.451965 632.711731,419.316986 
	C636.508301,433.446777 633.037109,445.646118 624.136108,456.678345 
	C613.674011,469.645416 603.052185,482.496613 589.691467,492.667450 
	C586.509155,495.089935 586.864075,497.366547 589.100342,499.737793 
	C593.969849,504.901215 600.098816,507.125793 607.130066,506.273071 
	C611.254333,505.772888 615.338196,504.831207 618.759338,502.143646 
	C619.537964,501.531982 620.483459,501.061279 622.075745,502.328979 
	C619.105713,509.716766 613.229736,514.049805 606.146362,517.207214 
	C598.815735,520.474792 591.258423,519.353760 583.513428,517.850769 
	C590.507446,540.467346 589.904663,553.485291 581.710571,559.692078 
	C579.168213,557.950928 580.487000,555.125366 579.756348,552.466675 
M359.422455,398.582733 
	C353.339813,395.412354 347.216034,395.960022 340.871765,397.946930 
	C341.817139,400.406891 344.934875,402.129852 342.876099,404.480377 
	C340.596161,407.083435 338.713501,403.893311 336.923676,402.988861 
	C330.389557,399.687042 319.660797,400.937897 313.950684,406.221252 
	C316.665924,407.016449 317.616669,413.282776 321.234711,409.230072 
	C326.046112,403.840698 330.765015,404.033905 336.270935,406.977936 
	C339.680481,408.800964 342.174011,408.591675 344.799072,405.277863 
	C348.578796,400.506378 353.531281,397.616425 360.571655,399.389099 
	C365.132751,400.535187 367.636078,404.629425 371.094391,407.172791 
	C371.839813,406.737152 372.333069,406.560059 372.680481,406.229645 
	C383.099091,396.321960 387.936005,396.305756 397.963745,406.643982 
	C400.073730,408.819336 401.572632,408.291931 403.507263,406.940308 
	C406.525024,404.831909 409.578491,402.826874 413.501953,402.940063 
	C418.105774,403.072937 419.412170,406.916656 421.405609,410.680847 
	C427.861908,401.332306 434.631836,408.002869 441.343750,409.522919 
	C434.990051,404.964630 427.752625,402.943298 420.421600,400.989441 
	C414.218719,399.336273 408.602173,399.463379 403.646393,404.059174 
	C402.696228,404.940308 401.705902,405.927032 399.908203,405.501831 
	C397.459900,401.897125 401.585480,400.141266 402.642456,397.092224 
	C397.437775,395.749451 392.166016,395.099274 387.377777,396.946045 
	C378.347900,400.428772 369.345306,401.245667 359.422455,398.582733 
M444.165710,161.334366 
	C433.324646,155.838608 425.252197,155.501816 421.339417,160.694534 
	C423.177185,160.777863 424.819763,160.765198 426.441589,160.942459 
	C431.063751,161.447632 435.361572,165.337906 436.591797,170.120148 
	C437.659363,174.270142 435.553955,177.322876 432.630768,179.688965 
	C429.421783,182.286316 425.525787,183.288452 421.372742,182.623566 
	C412.796661,181.250565 406.078064,173.056976 406.134979,164.140579 
	C406.187500,155.916397 413.366150,148.332260 422.035156,146.792068 
	C434.277069,144.617096 444.682831,148.806961 454.316772,155.684692 
	C468.216187,165.607544 477.089844,179.762527 485.962982,193.880142 
	C486.622559,194.929596 487.516815,196.159012 485.626312,198.153900 
	C477.776337,188.925903 470.295410,179.330765 460.255402,172.030670 
	C458.260040,175.438080 459.796326,177.721939 460.752930,179.866272 
	C467.754028,195.560013 475.842468,210.577011 486.511536,224.213196 
	C493.213776,232.779419 501.041656,240.837738 503.617767,252.025894 
	C503.793762,252.790207 504.147186,253.831940 505.223480,253.492661 
	C508.397064,252.492188 508.260010,255.264053 509.087372,256.827301 
	C511.536316,261.454224 508.694183,265.766266 507.746002,270.160950 
	C512.861206,270.840332 514.315674,264.463684 519.309814,264.691223 
	C519.268005,268.861969 515.348694,270.247345 514.243652,273.516052 
	C519.313782,273.071869 522.705200,268.746216 527.603088,268.269501 
	C528.311829,272.083221 525.152771,273.652161 524.022949,276.593018 
	C529.212280,277.365265 533.550293,279.527100 538.346985,281.425903 
	C521.909119,241.729980 511.674988,199.392578 484.398376,164.713806 
	C494.953430,171.764816 500.219971,183.339294 509.064209,191.749954 
	C509.091309,190.052277 508.899536,188.547836 508.269531,187.257278 
	C502.478485,175.393997 495.912537,163.994614 486.728790,154.384048 
	C469.635132,136.496033 448.287903,126.756119 424.270905,122.267403 
	C410.649933,119.721680 397.169556,119.115135 384.141846,125.086227 
	C383.567108,125.349648 382.541687,125.656731 382.265686,125.388428 
	C378.963531,122.178917 377.345428,125.439270 375.533539,127.192062 
	C373.144653,129.503036 370.923248,132.000259 368.760773,134.529373 
	C364.499634,139.512985 363.985016,139.801468 359.536682,135.009903 
	C348.691895,123.328362 335.244629,118.820343 319.607056,119.024780 
	C298.332336,119.302902 278.124329,124.531578 258.257324,131.476883 
	C233.019302,140.299820 215.425674,157.694595 203.333694,181.102707 
	C201.720825,184.224976 199.031342,187.661026 206.143127,190.176331 
	C193.543655,197.966797 181.139816,203.027084 168.313980,209.051682 
	C169.001129,204.688446 172.632645,204.014130 174.073135,201.582504 
	C172.593399,200.161697 172.141052,198.999496 172.142548,196.342041 
	C159.363922,203.728531 149.630493,213.735092 142.556137,226.506760 
	C150.931290,224.110474 158.712036,220.330551 167.300827,218.839432 
	C153.310303,236.031174 137.395157,251.320602 124.629211,269.248108 
	C130.054276,266.040863 133.513260,260.263397 140.348969,258.307648 
	C140.534531,263.075714 136.504379,265.306458 136.315811,269.863434 
	C142.075104,262.812988 146.960709,255.906967 153.242203,250.256546 
	C154.961533,248.709930 156.370346,245.928314 159.327972,248.906708 
	C160.592651,250.180298 161.754013,248.597733 162.652191,247.713943 
	C165.977112,244.442261 169.368530,241.224533 172.504623,237.777023 
	C183.051941,226.182266 196.886765,218.046555 206.464478,205.433884 
	C207.041992,204.673370 207.988297,204.016418 209.471924,205.483902 
	C206.135727,211.939209 202.485367,218.404129 197.414917,223.875565 
	C181.929672,240.585480 169.666138,259.551239 157.634293,278.788635 
	C145.942474,297.482361 135.028656,316.829010 118.743370,332.672729 
	C120.848160,332.333832 122.004494,331.168182 123.187759,330.054962 
	C136.250076,317.766266 147.019669,303.635376 156.698563,288.600403 
	C168.046326,270.973083 177.879272,252.380905 190.487778,235.557480 
	C191.525635,234.172714 192.143921,232.195160 195.475616,232.865631 
	C190.773911,244.201370 184.267578,254.484879 180.636459,265.973663 
	C176.977020,277.552002 172.170105,288.911011 173.470963,302.089447 
	C176.797348,299.519012 179.469452,297.294495 182.314270,295.318665 
	C183.903992,294.214508 185.871887,292.089630 187.615250,293.200195 
	C191.417007,295.622009 193.920380,293.027344 196.794510,291.690796 
	C201.648163,289.433716 206.642639,287.658722 211.900497,286.585815 
	C213.386444,286.282593 215.292969,286.528625 216.586044,283.395203 
	C205.413391,283.346466 194.960770,283.408508 184.994553,288.618195 
	C186.322021,283.791199 190.003159,281.915680 193.701187,280.256165 
	C197.446838,278.575287 201.493393,277.976868 206.852936,278.559143 
	C202.663742,274.877380 199.109589,272.401611 196.362900,269.065094 
	C194.950592,267.349518 194.321518,265.715637 195.547058,263.636078 
	C203.749435,249.717941 211.751541,235.665756 222.244492,223.269623 
	C223.291672,222.032516 224.268066,220.188690 226.755997,220.847702 
	C226.509201,221.720398 226.507919,222.485062 226.132324,222.942169 
	C216.260025,234.957855 209.633209,249.154663 200.211075,261.468689 
	C199.128967,262.882935 197.130539,264.494049 199.196869,266.116058 
	C203.484787,269.481934 208.331192,271.862488 214.327332,272.832916 
	C213.344528,267.712891 206.979431,266.325775 207.489914,260.821838 
	C211.647430,261.249481 213.056259,266.035645 217.174973,266.136536 
	C219.550888,261.406586 215.057953,255.238602 220.219131,251.396164 
	C222.526245,251.845276 221.985321,254.957062 224.783371,254.980637 
	C226.945923,250.190414 228.202927,244.801163 231.367294,240.241821 
	C242.495041,224.208618 252.313400,207.421768 259.677094,189.295670 
	C262.256470,182.946381 264.317535,176.434738 264.855865,168.760635 
	C254.291870,173.820709 249.168686,183.446487 241.334274,190.247925 
	C240.074829,188.118790 240.908279,186.936935 241.551361,185.833878 
	C247.697769,175.291168 254.440765,165.176819 263.945160,157.300934 
	C277.040527,146.449341 291.747101,141.044083 308.897003,144.961227 
	C318.105865,147.064575 325.259735,157.130890 323.656067,165.359375 
	C321.610901,175.853302 310.883026,183.808838 300.972382,182.181000 
	C294.908813,181.185074 290.447998,175.708221 290.903625,169.818939 
	C291.376282,163.710251 296.255707,159.582809 302.965912,159.697769 
	C304.856415,159.730148 306.743408,159.969650 309.177612,160.155899 
	C306.752777,156.596024 303.554626,155.634537 300.281860,155.355423 
	C290.742828,154.541840 281.784149,156.423874 273.426636,161.334839 
	C269.567871,163.602295 268.583038,166.201218 270.129181,170.412033 
	C277.581512,190.708252 288.891785,208.506317 303.729919,224.219101 
	C308.560822,229.334824 313.541687,229.607956 319.506561,227.176407 
	C322.160614,226.094482 324.566010,224.086288 328.298370,224.261902 
	C325.884918,230.403595 319.214844,230.224152 315.495087,233.879135 
	C317.339508,237.104309 320.366516,238.776932 322.523163,241.247849 
	C326.082947,245.326370 329.595795,244.761566 333.337952,241.686371 
	C340.582123,235.733337 344.648895,227.897659 347.012177,218.984741 
	C347.567413,216.890671 347.048737,214.293335 349.830505,212.306335 
	C353.052185,220.237640 349.105011,227.276306 348.431519,234.811172 
	C350.539154,235.091064 352.109802,236.356689 353.388153,238.621719 
	C360.909912,223.928131 355.408447,209.324890 354.626221,193.967972 
	C359.202026,199.091171 361.589111,208.487915 362.259674,217.922623 
	C363.374847,233.612732 359.867432,247.365265 346.464539,257.679688 
	C348.485596,258.689514 350.690430,257.206543 351.430664,259.770050 
	C347.053802,262.829468 341.275970,264.135925 337.912964,269.068909 
	C347.749695,272.734467 356.647308,284.614990 355.848602,293.426056 
	C349.797577,288.596527 344.269043,283.542328 336.640167,282.029602 
	C329.032684,280.521088 321.678772,280.642609 314.430115,283.784058 
	C320.984344,284.479187 327.110443,285.656158 330.572083,292.060242 
	C329.213440,293.398773 328.223999,293.076355 327.361694,292.566803 
	C322.974915,289.974670 318.127808,290.116241 313.285980,289.996704 
	C304.991638,289.791901 297.213684,292.500183 289.213440,293.983002 
	C285.621399,294.648743 282.665863,296.139496 279.938019,298.472565 
	C270.414062,306.618073 264.686523,317.270264 260.152893,328.631653 
	C255.996613,339.047394 254.078491,350.060303 252.310791,361.082916 
	C252.109436,362.338470 252.372681,363.886932 250.437820,364.033813 
	C249.237381,363.725830 248.943207,362.749908 248.808502,361.748230 
	C246.030518,341.087616 234.677078,323.428894 228.076004,303.774414 
	C217.667847,308.254364 208.182373,314.937561 198.931900,322.108734 
	C206.232758,307.620758 218.827652,299.594421 234.173996,293.179565 
	C225.891174,293.026764 220.198227,298.202942 212.671661,299.408203 
	C214.381592,294.652008 218.741226,294.000336 220.912735,290.532867 
	C217.506042,290.654694 214.611893,291.314423 211.907211,292.486542 
	C188.774460,302.511292 170.884003,318.427979 159.380219,340.907501 
	C148.955994,361.277405 158.873276,385.983521 177.591125,397.496429 
	C175.817200,393.991821 174.514297,391.180267 173.005569,388.483917 
	C169.260010,381.789917 167.320480,374.741180 167.667801,366.977997 
	C168.142166,356.375397 174.706985,347.806183 183.558365,346.797607 
	C195.618988,345.423401 207.784332,352.782684 210.842422,364.553955 
	C204.045135,359.852112 198.097626,354.322632 188.816467,358.980133 
	C198.948807,364.498169 205.780762,372.797150 215.360306,377.285187 
	C221.300842,380.068359 227.550415,380.412201 233.923843,379.322327 
	C241.752075,377.983673 247.975800,373.455627 254.192673,368.961212 
	C273.216492,355.208130 291.043976,339.845856 310.699158,326.941254 
	C311.099609,326.678314 311.511200,326.432343 311.774719,326.267700 
	C311.172791,324.598022 308.752258,325.588776 308.968201,323.509247 
	C309.711395,322.120483 311.147064,321.436066 312.487274,320.922089 
	C320.046661,318.023132 327.943817,315.977570 334.972260,311.745880 
	C335.920532,311.174927 337.208801,311.120911 338.357666,310.945343 
	C339.361115,310.791992 340.409302,310.849609 340.993378,311.878082 
	C341.596558,312.940155 341.069977,313.834686 340.300476,314.531891 
	C337.040009,317.485962 334.469574,320.952545 329.359436,321.735046 
	C319.953247,323.175415 314.055634,333.692719 317.253601,341.769806 
	C323.045227,341.961700 327.934662,340.107574 332.719940,336.756256 
	C337.475922,333.425476 343.221405,333.804016 348.542358,336.065155 
	C350.761658,337.008209 352.686066,338.645294 355.800781,340.644867 
	C351.666229,334.231232 345.550018,330.085388 344.548859,323.803009 
	C343.480804,317.100586 349.535980,312.637695 352.774597,306.728699 
	C355.517853,310.242584 354.808197,313.430176 353.900787,316.055176 
	C351.430206,323.202148 354.543518,327.880127 359.815460,331.994537 
	C363.034912,334.507141 366.664001,336.056702 370.564423,337.098114 
	C377.773193,339.022919 383.609344,336.390076 388.780487,331.612885 
	C393.768707,327.004639 395.724884,321.905884 392.514465,315.173248 
	C391.371216,312.775726 389.819031,309.497772 392.479797,305.953949 
	C396.733795,312.465607 400.350525,318.709137 403.540771,325.420013 
	C400.587067,327.723389 398.532562,330.302246 399.968994,334.487335 
	C410.428375,331.570831 416.051178,341.933533 426.064270,342.508972 
	C426.947205,341.962830 426.789032,340.094055 426.460541,338.298218 
	C425.157806,331.176208 421.503510,325.640381 415.008484,322.263489 
	C411.022064,320.190887 406.884338,318.410004 402.822357,316.481628 
	C401.388336,315.800842 400.083466,314.900879 400.774292,313.056152 
	C401.370911,311.462891 402.796204,310.838867 404.421265,311.040009 
	C407.797699,311.457855 410.660614,313.019592 413.517639,314.860168 
	C421.636047,320.090179 428.799896,326.666534 437.254028,331.422211 
	C441.455383,333.785675 445.638916,336.175629 449.543457,339.076630 
	C464.379608,350.099609 479.303345,361.005707 494.258453,371.867218 
	C499.328125,375.549194 504.912537,377.734131 511.367462,378.052246 
	C526.213196,378.783844 533.969788,367.112640 545.784607,359.926971 
	C536.333496,354.491669 529.530090,359.198792 522.337158,362.382233 
	C526.203613,355.887939 530.776062,350.485260 538.004700,348.151245 
	C550.401855,344.148346 560.613342,351.246033 561.384399,364.252625 
	C561.651855,368.764130 561.368347,373.192505 560.396118,377.644470 
	C559.037781,383.864349 555.944519,389.272186 553.249084,394.922516 
	C562.438171,386.577942 568.458984,376.687164 569.886475,363.973419 
	C572.977966,336.441437 547.318237,304.199097 527.427612,295.512939 
	C523.257202,293.691742 519.339661,290.797882 514.137085,290.944519 
	C515.589722,293.305237 518.532410,294.095001 518.547974,297.382996 
	C514.434998,297.220154 511.723816,294.405792 508.364014,293.268097 
	C505.000732,292.129150 501.804291,290.078888 498.092743,292.897461 
	C515.748962,300.359283 525.631104,308.043091 525.924500,314.896881 
	C519.078552,310.048920 513.392517,303.672760 504.259399,301.913208 
	C506.412903,309.204742 504.104614,315.186920 501.177124,321.063232 
	C496.527252,330.396851 494.019104,340.368927 492.137939,350.572815 
	C491.409668,354.523102 491.559479,358.742035 489.625000,362.487946 
	C487.516998,361.794983 487.486115,360.151123 487.158905,358.746063 
	C484.968475,349.339661 482.596069,339.985809 478.897064,331.034149 
	C473.459473,317.875061 467.556488,305.051636 454.887543,296.947449 
	C452.527588,295.437805 453.474670,294.059174 455.539154,292.902618 
	C457.515259,291.795593 460.189209,292.420288 461.985718,290.217621 
	C459.098633,287.374786 454.261200,288.263977 451.155396,284.282196 
	C464.209045,280.565491 476.326233,284.178436 488.715485,285.281494 
	C486.776917,282.846893 484.648468,280.838501 482.416138,278.953033 
	C475.670990,273.255951 468.507629,268.531799 459.068085,269.391968 
	C448.999817,270.309357 439.886597,273.688812 432.360016,280.523712 
	C428.439941,284.083557 424.501129,285.041107 419.594879,282.975128 
	C416.381989,281.622223 413.018829,280.544983 409.634796,279.695435 
	C400.228943,277.334137 392.810486,281.095123 388.914459,289.927734 
	C388.424042,291.039581 388.503754,292.693054 386.243042,292.878754 
	C384.825043,287.403931 385.136047,281.861542 388.132782,277.253937 
	C391.277679,272.418549 390.038025,270.219116 385.191956,268.654877 
	C385.047302,268.608185 385.060883,268.071350 384.945557,267.480560 
	C389.047211,265.829407 392.918091,268.912933 397.495941,268.250214 
	C395.983307,265.085144 393.375122,263.593597 391.053864,261.864899 
	C387.327911,259.090118 381.087952,258.151733 383.334198,251.087051 
	C383.412476,250.840866 383.144348,250.459641 382.988647,250.167480 
	C377.598694,240.053604 377.737183,228.596252 375.139801,217.804443 
	C374.831116,216.521896 374.607208,215.093872 376.839294,214.577728 
	C381.526093,220.100113 381.685455,227.982544 386.241272,234.958221 
	C388.955658,225.150528 385.330353,216.611069 385.764954,208.014969 
	C390.132294,212.945953 391.638214,218.891479 393.247162,224.797974 
	C394.779694,230.423935 396.400146,236.024902 399.244873,241.166733 
	C401.262177,244.813019 404.289551,246.038147 408.053955,244.126266 
	C412.229095,242.005829 415.191803,238.518875 418.138092,234.951965 
	C413.892944,231.433945 408.244415,230.256638 406.259918,224.184280 
	C409.692383,224.472260 411.474060,226.096252 413.458862,227.225647 
	C421.068054,231.555313 423.594299,231.003738 428.969574,224.027008 
	C440.195892,209.456070 446.130585,192.559006 450.611328,175.025620 
	C452.858856,166.231064 452.708466,166.021698 444.165710,161.334366 
M275.084534,611.543945 
	C281.718292,627.208618 289.549896,642.383545 295.118958,658.790833 
	C291.675720,659.174744 291.221100,656.748169 290.340942,655.221130 
	C276.432343,631.090881 264.252930,606.052246 254.028168,580.201233 
	C243.209671,552.849121 230.285919,526.710327 215.109268,501.543793 
	C200.235153,476.878906 186.388443,451.617859 174.851166,425.167114 
	C173.387848,421.812286 171.901108,418.466980 170.370438,415.142456 
	C168.926712,412.006775 167.410706,408.904297 165.926498,405.787231 
	C177.729477,458.155853 203.936401,504.116760 229.220810,551.927307 
	C228.536804,542.462341 224.498688,535.214966 222.835373,526.677307 
	C226.257141,527.880798 226.699799,530.393127 227.639420,532.339783 
	C234.371262,546.286316 239.756317,560.840637 246.274734,574.861816 
	C263.685883,612.313477 283.129242,648.732300 303.994659,684.373657 
	C310.023865,694.672485 317.248688,704.020813 328.889618,708.746765 
	C333.486908,710.613159 337.977753,711.230286 342.980469,709.940674 
	C349.776733,708.188721 355.443756,704.461365 361.270874,700.930298 
	C369.245361,696.097961 377.316895,695.876465 385.453705,700.386658 
	C389.379944,702.562988 393.108643,705.102661 397.072388,707.203064 
	C408.780151,713.406921 420.901917,711.711182 430.782013,702.857727 
	C438.903748,695.579895 444.062897,686.272095 449.016296,676.816223 
	C463.327667,649.496338 475.414978,621.184326 486.835510,592.556396 
	C496.152100,569.202454 504.896637,545.612305 515.191956,522.655945 
	C515.999207,520.855957 516.281616,518.457886 520.300476,517.326904 
	C515.673584,532.802673 511.302429,547.282410 508.075562,563.016724 
	C523.879578,541.180969 555.747498,444.309875 555.462402,419.739563 
	C551.143494,426.057617 550.187378,433.853424 545.102173,439.735870 
	C544.927002,437.777832 544.751892,435.819763 544.576782,433.861725 
	C544.261719,433.831024 543.946594,433.800323 543.631531,433.769623 
	C536.541321,451.166138 529.450989,468.562653 522.360779,485.959167 
	C520.476196,490.583252 518.646362,495.231018 516.666016,499.813690 
	C516.208923,500.871460 515.844910,502.510925 512.516785,501.550049 
	C527.337524,462.914734 538.551331,423.292358 547.948975,383.092224 
	C538.956116,397.642639 534.097778,414.122040 526.208618,430.516754 
	C524.172791,425.490509 527.494080,422.189423 526.240112,417.985474 
	C522.305603,424.250793 522.978638,431.842224 517.918579,438.045532 
	C517.104187,431.376190 519.798462,426.097046 518.995361,419.424377 
	C517.044434,424.248779 515.403381,427.888153 514.082764,431.640350 
	C505.182404,456.928406 497.609741,482.622406 490.646637,508.503937 
	C490.003571,510.894135 489.575958,513.619141 486.831451,515.355408 
	C486.152802,508.791809 488.874603,502.952972 488.469910,496.882080 
	C480.018799,521.733948 471.118256,546.276428 461.176453,570.444397 
	C454.187103,587.435120 446.831726,604.211243 434.270050,618.008850 
	C431.114349,621.475037 427.834076,625.095703 422.519836,626.383301 
	C422.496033,622.472412 426.608582,621.484070 425.967255,617.736145 
	C418.340210,620.550293 411.145721,618.311646 403.948914,616.226318 
	C385.973511,611.017822 367.795624,610.908142 349.579620,614.455383 
	C339.735565,616.372437 330.206635,620.977478 320.017273,616.461060 
	C318.966766,621.141479 324.475952,622.504639 323.995911,627.009277 
	C319.227936,625.244141 316.071075,622.128906 313.084625,618.809692 
	C301.329559,605.744995 294.005615,589.939026 286.351105,574.451782 
	C269.059174,539.465393 256.337830,502.585724 242.486923,466.181305 
	C241.665863,464.023285 241.191452,461.675476 239.252701,460.052612 
	C241.098816,469.553986 243.312256,478.915039 245.522995,488.276733 
	C247.703812,497.511810 251.366806,506.437592 251.845581,516.070984 
	C250.783401,515.754944 250.216339,515.316956 250.001373,514.746277 
	C246.127670,504.463806 241.949554,494.278687 238.541199,483.842590 
	C233.945267,469.770203 229.961258,455.498322 225.675278,441.323944 
	C225.265396,439.968353 224.730682,437.340881 223.665451,437.816284 
	C219.832703,439.526703 220.240219,436.224548 219.612335,434.682770 
	C217.132751,428.594299 214.906250,422.402771 212.585876,416.249451 
	C212.193130,416.374847 211.800369,416.500244 211.407623,416.625641 
	C212.978119,422.505096 214.475357,428.405396 216.139816,434.258118 
	C217.784653,440.041901 220.958603,445.485504 220.872421,451.634460 
	C220.301590,451.809753 219.730743,451.985046 219.159897,452.160339 
	C215.512711,442.651459 211.865524,433.142578 208.195389,423.573853 
	C206.376099,424.439514 208.684097,426.822571 206.148468,427.241638 
	C205.639450,426.521606 204.950317,425.795807 204.546219,424.936035 
	C201.149307,417.708740 197.906464,410.420288 195.311050,402.850372 
	C192.938080,395.929260 190.519363,389.015808 187.820175,382.218384 
	C186.659653,379.295776 184.615738,376.862518 180.942520,377.203003 
	C179.915329,378.941376 180.481918,380.404694 180.744370,381.853149 
	C184.215988,401.012207 192.541992,418.513733 199.673538,436.386688 
	C209.672485,461.445984 222.080780,485.427094 233.513306,509.844299 
	C234.349411,511.630005 235.860931,513.427368 233.914276,515.976868 
	C216.732483,484.836548 202.200394,452.305725 183.590500,421.843689 
	C181.858566,423.420410 183.044342,424.571838 183.367722,425.756683 
	C189.836151,449.455811 201.662567,470.710632 213.808578,491.769714 
	C223.543777,508.648895 233.220627,525.567749 241.956436,542.969727 
	C253.231644,565.430237 263.838074,588.226440 275.084534,611.543945 
M416.506012,803.041870 
	C418.795319,799.767700 420.978577,796.413147 423.390808,793.232239 
	C443.059662,767.295166 466.157715,744.429138 488.573517,720.977722 
	C507.343323,701.340698 525.868347,681.551147 541.656738,659.362366 
	C542.995605,657.480774 543.977722,654.944885 548.187988,653.986694 
	C529.950195,692.981628 505.635864,726.471252 478.185333,757.915466 
	C499.984253,743.331238 516.826477,723.883545 532.785034,703.307617 
	C528.662842,715.726440 522.630066,727.121338 516.077148,738.898010 
	C520.859863,739.201111 523.868591,736.629639 527.379761,735.891663 
	C537.095642,733.849670 543.731567,727.857971 549.356445,719.889587 
	C563.731628,699.524963 571.457458,676.610901 574.673584,652.308350 
	C577.772766,628.889038 583.900269,607.085815 599.318298,588.542236 
	C602.575317,584.625000 606.223083,580.636108 607.686768,575.368835 
	C605.809998,574.784424 604.994568,575.821411 604.180786,576.534729 
	C586.403625,592.115967 568.348145,607.393860 551.300659,623.783142 
	C525.850769,648.250366 501.122437,673.430359 477.362091,699.551392 
	C454.403534,724.790955 431.204956,749.831177 412.279846,778.399292 
	C393.577728,806.630798 377.059357,835.761902 373.595642,870.422729 
	C372.580353,880.582764 371.280609,890.705811 372.567596,901.031311 
	C381.065643,865.822083 395.246460,833.234741 416.506012,803.041870 
M572.552734,744.034180 
	C569.066223,744.271545 565.541992,744.260681 562.098938,744.784119 
	C519.910278,751.197632 483.981903,770.344788 452.752716,798.894043 
	C448.323761,802.942932 444.324341,807.461670 440.126129,811.762939 
	C446.892365,808.451721 453.139191,804.641968 459.449890,800.940979 
	C487.701263,784.372803 517.802368,772.548950 549.987305,766.358521 
	C555.763000,765.247559 561.807556,763.663574 568.138916,765.461731 
	C566.891418,767.938904 564.815369,767.749084 563.200012,768.226196 
	C538.426208,775.544373 514.000549,783.781311 490.655243,794.981018 
	C461.990295,808.732910 436.015717,826.110901 415.313446,850.623047 
	C412.521698,853.928589 409.855042,857.347717 407.273926,860.820862 
	C404.748230,864.219360 402.405823,867.754028 399.983002,871.228943 
	C416.107361,854.689514 434.723328,842.121765 455.946869,833.418396 
	C472.785675,826.513184 490.354614,821.947937 507.989807,817.631348 
	C522.295776,814.129700 536.131653,809.516724 548.537415,801.247803 
	C560.868652,793.028625 573.075256,784.575073 585.809692,777.022034 
	C597.620605,770.016724 610.229553,764.710876 624.546692,765.699951 
	C626.257324,765.818115 628.178345,766.353210 629.772156,765.012085 
	C627.884827,761.789246 625.598694,759.543152 621.867371,756.968201 
	C607.289795,746.908386 590.994812,743.304016 572.552734,744.034180 
M217.484695,671.027039 
	C215.334824,668.807373 211.650558,668.202942 210.123291,663.913391 
	C220.601013,666.395630 229.282730,671.716125 239.429016,674.790771 
	C231.346680,653.818909 185.773346,622.121277 158.738251,617.900330 
	C181.940155,629.970215 201.798859,643.936584 203.049713,649.496826 
	C196.847397,646.386230 190.967178,643.360413 185.021240,640.469788 
	C168.217102,632.300598 150.795822,625.784424 132.794876,620.742554 
	C118.672928,616.787170 104.326180,613.094604 94.755753,600.494385 
	C94.540459,600.210938 93.881935,600.264099 93.500809,600.176514 
	C92.232109,601.263306 92.255173,602.654907 92.292694,603.962158 
	C92.774734,620.758240 99.622429,634.087036 113.870216,643.345154 
	C121.772697,648.480164 130.870499,650.174866 139.868408,651.619202 
	C178.236725,657.778137 208.813919,677.882874 235.574295,704.740784 
	C252.737839,721.966858 268.387695,740.537170 283.526581,759.585999 
	C306.070160,787.951965 326.120331,817.858398 342.312958,850.304688 
	C344.489410,854.665771 346.743591,858.988098 348.961792,863.328369 
	C347.352814,850.754333 343.554840,838.909058 338.829315,827.361145 
	C329.377014,804.262268 315.746063,783.562683 302.154022,762.769531 
	C279.169250,727.607300 252.059052,696.397949 217.484695,671.027039 
M400.128082,416.589386 
	C399.377625,417.947632 399.746857,420.038361 397.462891,420.538116 
	C394.898438,418.640350 395.709747,415.385956 394.566437,412.895905 
	C392.462616,408.313965 390.061523,403.744781 384.565765,403.607697 
	C379.374878,403.478210 376.604645,407.714233 374.182312,411.874207 
	C372.971741,413.953156 372.968903,416.762177 370.620331,418.174347 
	C368.360901,417.308380 368.774689,415.053040 367.979034,413.516022 
	C365.273865,408.290314 362.045959,402.922974 355.568665,403.582336 
	C349.776886,404.171844 347.191895,409.508606 345.374908,414.736877 
	C344.761658,416.501556 345.076965,418.862610 342.647675,419.622681 
	C340.916351,419.101685 340.460693,417.613220 339.878265,416.247681 
	C337.910278,411.633759 334.255951,409.731506 329.470795,410.248352 
	C325.147095,410.715271 323.808563,414.153687 322.484497,417.756775 
	C321.495667,420.447723 322.179382,423.791382 319.618378,425.964996 
	C317.187897,424.967743 317.437286,422.647461 316.737213,420.896973 
	C315.934387,418.889374 315.347534,416.817657 313.705231,415.241241 
	C311.261749,412.895874 308.921997,413.160065 307.812592,416.192261 
	C304.005981,426.596558 302.687408,437.157806 307.114746,447.792511 
	C308.266693,450.559601 310.120300,452.307465 313.292694,451.429474 
	C316.263031,450.607422 319.045288,449.420471 318.952576,445.523926 
	C318.877350,442.361481 318.826111,439.195007 318.904938,436.033813 
	C318.946259,434.377441 318.482788,432.380005 320.822815,431.299713 
	C323.938171,435.456787 321.894135,442.497253 328.122345,444.278839 
	C334.026245,445.967651 337.134216,440.724060 341.073639,437.743988 
	C346.165314,446.556610 353.599701,441.799347 360.025299,441.608215 
	C370.498108,441.296722 366.910370,430.976501 370.150299,425.772125 
	C372.199219,426.199249 372.438812,427.383301 372.693573,428.520721 
	C375.457916,440.862701 375.454956,440.863434 388.082794,442.209778 
	C389.241760,442.333374 390.404083,442.430786 391.559357,442.582367 
	C395.848999,443.145264 398.397675,441.824066 397.934296,436.946411 
	C397.830383,435.852692 397.799866,434.553192 399.837585,433.683990 
	C402.408478,437.488403 403.455750,443.004547 410.126068,443.112122 
	C417.557861,443.232025 416.245544,436.162994 419.473541,432.584290 
	C422.137726,435.624695 421.164948,438.759949 421.175842,441.600159 
	C421.192261,445.872101 422.267792,449.714478 426.866058,450.208313 
	C431.243866,450.678436 432.546082,446.462006 433.396118,443.199738 
	C435.433075,435.382324 435.627594,427.403442 433.855316,419.465515 
	C433.127472,416.205536 432.315674,412.035980 428.631195,411.798706 
	C424.971802,411.563019 423.818054,415.715729 422.277069,418.662842 
	C421.187866,420.745941 422.109619,423.770874 419.356995,425.189087 
	C417.424255,424.069733 417.751190,422.288544 417.726135,420.692078 
	C417.688690,418.308838 417.040466,416.069061 416.117706,413.931671 
	C413.632721,408.175812 409.175995,407.043976 404.122253,410.723358 
	C402.285339,412.060699 401.208282,413.876953 400.128082,416.589386 
M279.694519,362.195770 
	C267.055969,375.010315 253.841446,387.064117 235.338150,394.279816 
	C245.486771,399.780182 254.582901,401.569550 264.457031,400.408234 
	C278.574493,398.747803 291.288818,392.791199 304.248749,387.671509 
	C321.557343,380.833984 339.173615,377.219360 357.888184,379.649597 
	C362.492432,380.247467 367.570435,381.831055 372.536346,378.745270 
	C369.881866,376.023376 366.598785,375.715332 363.788544,374.426514 
	C360.856964,373.082062 357.076080,373.942017 354.592712,370.947754 
	C354.866943,370.263458 355.034363,369.629944 355.352661,369.084503 
	C358.734924,363.288635 358.818817,358.979095 355.562653,355.899200 
	C351.183533,351.757141 347.063599,354.050079 343.492340,356.898590 
	C337.294128,361.842377 331.045807,361.422913 324.375702,358.269989 
	C319.180847,355.814423 314.606628,352.643951 310.935913,348.158112 
	C306.366211,342.573730 303.860077,342.233887 297.822540,346.279633 
	C291.289001,350.657684 285.682526,356.112366 279.694519,362.195770 
M407.422607,378.863586 
	C409.906525,379.049347 412.405914,379.117218 414.871796,379.440521 
	C428.220306,381.190613 440.438965,386.509277 452.755920,391.518402 
	C461.078278,394.903015 469.385010,398.410614 478.406464,399.489807 
	C487.316589,400.555695 495.740601,399.394562 503.633423,393.518738 
	C502.386627,392.645782 501.783112,392.082336 501.072144,391.746277 
	C487.274689,385.224335 476.279755,375.110291 465.714417,364.395996 
	C459.525391,358.119690 453.406891,351.708740 445.975494,346.843353 
	C438.182007,341.740875 436.806458,342.387482 430.729248,349.377533 
	C424.129303,356.968781 416.288330,362.724854 405.263794,361.183594 
	C403.304993,360.909729 401.394257,361.170319 400.790619,363.353149 
	C399.380768,368.451324 397.073303,373.192749 394.708466,378.225372 
	C398.887543,379.468262 402.713623,378.535431 407.422607,378.863586 
M111.361618,452.144836 
	C117.933876,458.984192 124.382187,465.948547 131.115189,472.625824 
	C137.167618,478.628082 141.215134,478.938965 148.402740,474.341461 
	C152.887848,471.472565 157.157166,468.254822 162.070557,466.109802 
	C165.413651,464.650360 166.319107,461.979248 165.502014,458.744598 
	C164.526978,454.884644 163.324478,451.073029 162.033310,447.304657 
	C160.845825,443.838806 158.850098,441.632019 154.743973,440.784119 
	C148.911407,439.579681 144.958923,432.212646 147.710556,427.043732 
	C153.237717,416.660950 149.913864,407.747864 144.594193,398.863770 
	C138.341644,388.421661 132.887939,377.627594 129.042587,366.034210 
	C126.886032,359.532440 122.108192,356.809967 115.579300,357.852692 
	C108.553658,358.974762 103.123909,364.547211 102.931625,370.832855 
	C112.982437,366.840668 116.694885,367.318573 122.397270,374.796753 
	C129.971848,384.730194 136.574081,395.329803 141.836349,406.706451 
	C143.738907,410.819641 144.242142,415.254669 142.510529,419.333099 
	C139.290878,426.916290 140.512909,433.576965 145.329437,439.916199 
	C146.248291,441.125458 147.345993,442.787842 146.031601,443.963562 
	C142.572266,447.058014 138.815506,449.819977 135.032211,452.829712 
	C131.584976,444.443237 131.605026,443.676331 127.616974,442.005219 
	C117.072655,437.586853 115.105278,426.428436 118.045151,416.154266 
	C119.634773,410.598907 123.724724,406.989075 127.214165,402.604309 
	C124.114906,400.378754 121.409317,401.142365 118.497444,402.194702 
	C115.667297,403.217468 115.014473,407.134247 110.918228,407.338928 
	C111.588547,399.582886 112.741722,392.184509 114.520531,384.605286 
	C109.981453,384.196503 108.830391,386.944580 108.235466,389.920654 
	C106.379967,399.202759 105.149940,408.635193 102.819550,417.791016 
	C99.540810,430.672729 100.347275,442.201843 111.361618,452.144836 
M604.540039,422.152893 
	C606.058472,430.418304 603.926941,436.897430 595.872314,440.812164 
	C593.077637,442.170441 590.210815,443.690918 588.839722,446.887512 
	C586.106262,453.260132 586.076111,453.241760 581.306580,448.407471 
	C580.723694,447.816620 580.152344,447.145355 579.440674,446.761841 
	C575.281860,444.521027 575.347473,441.509552 577.911072,438.176300 
	C582.201355,432.597900 582.497803,426.534241 580.113281,420.225128 
	C578.541321,416.066132 578.897705,412.065155 580.329773,408.029114 
	C584.551880,396.130219 590.906860,385.455872 598.978088,375.789185 
	C605.757202,367.670044 608.452576,367.109100 617.707886,371.625336 
	C617.860046,371.699554 618.217346,371.353302 618.551270,371.161804 
	C618.277588,368.241302 616.808228,365.722656 615.014160,363.620850 
	C611.412476,359.401428 606.951050,356.574615 601.026550,357.625214 
	C596.562500,358.416809 593.208069,360.874054 592.215271,365.395935 
	C589.351746,378.438690 582.963684,389.973511 576.759155,401.529663 
	C572.366760,409.710693 571.121033,417.548462 574.969421,426.298401 
	C577.820007,432.779572 575.568054,437.757355 569.185608,441.252502 
	C567.549255,442.148651 565.941101,442.985962 565.230530,444.847595 
	C563.204041,450.156647 561.998108,455.667603 561.283386,461.288788 
	C560.972717,463.731934 561.807495,465.547638 564.405457,466.182953 
	C569.734863,467.486359 573.911804,470.870300 578.319397,473.851562 
	C585.036133,478.394653 587.821960,478.045532 593.276489,471.883087 
	C600.007568,464.278534 606.785095,456.710541 613.334595,448.951233 
	C618.512512,442.816864 622.186890,436.055969 620.738220,427.509399 
	C618.764282,415.864166 615.984192,404.371948 614.397156,392.644318 
	C613.939392,389.261322 612.596802,385.465942 606.961487,384.749756 
	C609.347656,392.724792 610.685791,400.330597 610.718872,409.113312 
	C605.391968,405.166565 602.234131,398.459076 593.967346,402.330017 
	C600.319885,407.704163 603.577515,413.901215 604.540039,422.152893 
M336.022797,540.827087 
	C336.522369,540.818359 337.028320,540.858398 337.520569,540.793884 
	C360.558807,537.773132 383.600586,537.572205 406.654083,540.639282 
	C407.742798,540.784180 409.673370,541.156738 409.701630,539.906677 
	C409.774658,536.675964 412.355438,537.248230 414.154907,536.760437 
	C413.242310,533.062439 408.488434,533.076538 407.760986,529.467041 
	C410.034576,528.090515 412.633667,530.008240 414.782776,528.163391 
	C412.714020,524.656921 408.420959,524.125427 405.535797,521.160522 
	C410.271515,518.521240 413.929382,523.270081 418.018341,522.381836 
	C418.632416,519.933411 416.973022,518.811157 415.761292,517.542725 
	C404.864410,506.136169 388.137695,506.188110 376.116577,517.726501 
	C373.554718,520.185486 371.412018,522.601929 368.069824,518.592224 
	C361.544037,510.762909 352.882141,508.021790 343.027588,509.318390 
	C334.210663,510.478485 327.583801,515.200684 322.481293,523.375061 
	C326.288391,522.927673 328.989471,520.542175 332.077393,521.672852 
	C332.816315,524.047363 329.596985,524.068420 330.079590,526.304504 
	C333.294403,527.554199 336.587006,524.395630 340.249847,525.996582 
	C337.812347,530.046692 331.995911,529.558533 330.090332,534.048157 
	C333.407654,535.151184 336.210724,531.591431 339.534851,533.734924 
	C337.666565,536.720032 333.987823,537.227478 332.493347,540.063965 
	C333.255280,541.152283 334.355225,540.645935 336.022797,540.827087 
M342.569092,762.950500 
	C324.231049,747.389648 304.731628,733.311218 285.573456,718.578064 
	C309.135010,755.648132 337.987000,789.141602 358.247284,828.364136 
	C358.788696,820.883118 356.019989,814.019775 354.741760,806.003784 
	C360.456207,809.019531 360.499603,815.152466 364.924622,818.684875 
	C363.873322,803.134338 355.237732,791.880737 347.552673,780.050171 
	C359.696899,787.836914 367.341034,799.990540 376.925507,810.943909 
	C378.603333,807.116577 377.250580,804.894592 376.299622,802.628479 
	C369.352753,786.074524 356.380829,774.613220 342.569092,762.950500 
M401.198517,552.490356 
	C397.224091,556.888428 398.539062,563.908997 393.688477,568.531677 
	C391.919281,564.579895 393.970398,561.425537 393.864532,558.183289 
	C393.655762,551.789429 391.286499,548.508728 385.913055,548.196411 
	C380.577606,547.886353 378.614807,550.328857 377.983826,557.255127 
	C377.637634,561.055481 377.930481,565.070862 375.994049,568.852112 
	C373.629425,567.641418 374.048187,565.860046 373.916687,564.286987 
	C373.639709,560.974365 373.293274,557.666748 373.068512,554.350830 
	C372.768707,549.927856 370.661957,547.684143 366.033997,547.892456 
	C360.944580,548.121521 357.668488,550.553467 357.283966,554.945618 
	C357.022949,557.927185 357.064941,560.927734 357.727173,563.894165 
	C358.047028,565.326843 358.402252,566.894165 356.547607,567.697998 
	C354.685333,567.134460 354.826782,565.391846 354.328857,564.053955 
	C353.112000,560.784363 352.098114,557.426819 350.680603,554.248230 
	C349.511475,551.626526 347.323761,550.106873 344.269073,550.467590 
	C341.234589,550.825989 339.489532,552.733765 338.860901,555.588318 
	C337.000824,564.034668 338.958435,571.724976 343.726379,578.791382 
	C344.803986,580.388550 346.522827,581.263550 347.872833,579.595337 
	C351.266632,575.401672 354.058716,576.453186 356.984344,580.915588 
	C358.278381,578.708130 359.650482,576.982239 361.826080,578.964783 
	C365.403076,582.224304 369.202728,581.585388 372.804230,579.278320 
	C375.056305,577.835571 376.621399,577.859924 378.405609,579.874817 
	C380.960236,582.759766 384.334320,582.610168 386.958099,580.578674 
	C389.730377,578.432190 391.792999,578.525330 393.825439,580.912415 
	C395.920898,579.440674 395.796692,576.506592 398.328369,576.062988 
	C398.555603,576.128052 398.752808,576.128418 398.865540,576.226196 
	C399.485260,576.763672 400.110168,577.299377 400.686279,577.882141 
	C404.606049,581.847412 408.008026,581.392517 410.191132,576.212708 
	C412.759949,570.117737 413.689880,563.699341 412.101532,557.153992 
	C410.633636,551.104980 408.044586,549.875671 401.198517,552.490356 
M157.087204,692.424622 
	C158.075897,695.116028 159.692978,697.434692 161.388733,699.710144 
	C170.873032,712.436584 183.780685,720.364441 198.338257,725.902283 
	C203.694611,727.939880 209.041138,730.217651 215.639954,730.267700 
	C211.254852,722.224243 205.332794,715.960022 200.677994,708.785217 
	C215.223404,715.654785 227.973648,725.013611 241.167923,734.963684 
	C240.973373,732.031311 239.588623,730.949463 238.575684,729.704895 
	C229.076126,718.033081 218.366043,707.562866 206.377075,698.494995 
	C194.199112,689.283997 181.194794,681.589050 165.734207,679.207275 
	C161.862442,678.610779 156.851837,676.256226 154.427246,679.663818 
	C151.864655,683.265320 155.009888,687.829712 157.087204,692.424622 
M187.343079,506.134827 
	C188.670685,529.023010 196.968033,548.739441 213.774780,564.661621 
	C220.845032,571.359741 228.203690,577.614746 237.977982,583.086548 
	C224.442184,549.683228 206.818451,520.280640 186.370392,492.115051 
	C186.659729,496.485962 186.949081,500.856842 187.343079,506.134827 
M549.046387,498.711487 
	C548.798767,496.996338 549.579895,495.088501 547.945557,493.262909 
	C529.040588,522.132935 517.624573,554.397217 502.024261,586.040527 
	C532.111328,565.448669 552.644897,540.668030 549.046387,498.711487 
M371.424042,80.999138 
	C380.234436,62.036346 394.546509,49.696945 415.159180,44.818958 
	C399.440369,43.065826 385.283173,47.942707 371.279327,55.346474 
	C371.032898,50.384079 375.416199,49.693291 376.936676,46.541824 
	C358.120148,52.965622 347.175079,83.458450 352.424408,96.374725 
	C356.359558,89.183434 357.007263,80.642517 363.811340,75.653305 
	C362.182648,83.727203 361.237335,91.631737 363.101379,99.749710 
	C365.999817,93.775169 367.971161,87.466682 371.424042,80.999138 
M245.582947,666.929993 
	C248.573578,670.274536 251.544098,673.637390 254.560638,676.958435 
	C257.434906,680.122803 259.770660,683.833557 264.046631,686.731567 
	C256.925476,656.191406 235.345688,635.068237 219.828232,610.299988 
	C220.082138,621.148132 220.660034,631.737366 225.350540,641.541748 
	C230.033371,651.330017 238.107010,658.443604 245.582947,666.929993 
M259.346680,283.668701 
	C268.262299,282.315155 277.158661,282.204529 286.110504,283.704346 
	C282.540771,287.447449 276.987732,286.671875 273.060364,290.549469 
	C285.516113,295.143097 294.675323,285.806335 306.130249,284.914825 
	C284.136536,265.079254 257.140259,266.470581 246.555618,284.611572 
	C250.623154,285.236542 254.511063,284.119324 259.346680,283.668701 
M469.204102,88.247223 
	C450.915436,78.304657 417.237305,86.383896 409.715210,99.330673 
	C414.769165,97.215622 419.745056,94.884850 424.890472,93.022369 
	C448.919098,84.324707 472.352448,90.125420 486.922974,110.816795 
	C492.082245,118.143372 496.468353,126.075523 502.950073,132.409760 
	C508.619690,137.950378 515.209595,141.848740 523.118530,143.212051 
	C518.505615,141.189789 514.412781,138.470154 510.717010,135.024872 
	C504.318939,129.060516 499.558289,121.843933 494.790741,114.636002 
	C488.045074,104.437332 480.635101,94.908989 469.204102,88.247223 
M406.167419,68.545815 
	C419.585754,61.483902 434.091522,62.267094 448.566589,62.715092 
	C430.690155,53.693069 412.885254,53.467606 396.093292,64.669327 
	C386.338715,71.176483 378.992645,80.182159 376.660980,92.350143 
	C384.851318,82.672493 394.134369,74.510239 406.167419,68.545815 
M247.719101,88.981865 
	C251.575989,101.999733 260.972168,108.835571 273.468445,112.284897 
	C267.960968,106.557114 262.261047,101.064079 260.740295,92.715485 
	C266.326080,96.246971 271.068787,100.894974 279.084381,102.777748 
	C269.579590,93.220985 259.326904,85.614021 259.482300,70.955078 
	C252.516205,75.643661 247.942337,80.509392 247.719101,88.981865 
M605.128662,624.922913 
	C605.128662,618.598633 605.128662,612.274292 605.128662,605.950012 
	C598.174500,644.444885 597.033142,684.364197 576.832764,719.565735 
	C597.130737,691.593872 603.835999,659.543518 605.128662,624.922913 
M326.345459,552.075317 
	C320.639252,552.028564 323.335083,558.385071 320.377533,560.320679 
	C318.229004,559.940796 318.202942,558.206970 317.573334,556.931091 
	C316.838898,555.442871 316.176331,553.545471 314.281586,553.581787 
	C312.009888,553.625366 311.543060,555.659302 311.265808,557.524475 
	C310.675903,561.493164 308.599365,560.419922 305.926666,557.978638 
	C307.531799,563.209290 311.133881,565.643127 313.616028,568.877686 
	C314.954865,570.622437 316.540955,572.018433 319.069824,570.187622 
	C320.924255,568.845032 322.108246,570.125977 322.800171,571.940735 
	C323.391449,573.491394 323.822662,575.155762 324.696228,576.534424 
	C326.212555,578.927368 328.389038,580.423096 331.420410,579.690735 
	C334.555878,578.933105 334.900360,576.385254 334.777618,573.799866 
	C334.500458,567.961670 333.358063,562.267944 331.252350,556.812195 
	C330.481140,554.814148 329.517578,552.788391 326.345459,552.075317 
M226.337265,120.781471 
	C223.993362,121.620262 221.491577,122.142090 219.637024,124.050163 
	C231.758865,118.612862 245.558731,121.290100 258.704041,116.231529 
	C251.736328,110.072929 245.476868,104.540329 238.716064,98.564598 
	C238.662216,101.272827 240.413986,103.364899 238.528900,105.696014 
	C229.524445,103.560143 221.163528,104.894318 214.232285,112.239120 
	C222.182266,111.684311 229.768616,112.038055 236.749008,117.284180 
	C233.347198,119.749870 229.947021,119.310913 226.337265,120.781471 
M370.592834,590.206177 
	C359.406189,591.199402 348.219513,592.192627 336.513123,593.231934 
	C355.383972,600.753723 394.622498,600.752380 410.200775,592.909973 
	C396.641296,591.960388 384.094452,591.081665 370.592834,590.206177 
M294.726410,567.783203 
	C299.733459,574.914001 304.259735,582.553772 314.482025,586.097534 
	C308.386230,580.083313 303.682526,574.630920 299.880402,568.394470 
	C291.279327,554.286499 285.002747,539.025146 277.716339,524.268066 
	C271.364960,511.404602 265.344269,498.377869 259.177490,485.423309 
	C261.189209,492.815826 263.883392,499.911865 266.700256,506.958862 
	C274.907532,527.490967 282.936646,548.107605 294.726410,567.783203 
M468.441956,518.873474 
	C458.430542,541.852234 452.229614,566.815125 433.092865,585.898621 
	C441.368591,582.831238 445.822876,576.892700 449.705872,570.438843 
	C465.049957,544.935181 473.156982,516.520813 482.469116,488.595947 
	C482.769226,487.696075 483.107117,486.662964 481.948608,485.078522 
	C478.179962,496.677704 473.319885,507.361847 468.441956,518.873474 
M521.472778,214.079834 
	C526.145508,219.483536 531.021362,224.727234 535.438416,230.332413 
	C540.678711,236.982376 545.277710,244.178848 551.510559,249.974075 
	C557.859497,255.877228 564.590576,261.320190 573.472290,263.154236 
	C564.495789,256.100647 557.456360,247.303879 550.146912,238.704559 
	C541.759216,228.836731 532.891541,219.367569 523.142395,210.793610 
	C521.685669,209.512451 520.172058,207.867508 517.563782,208.239944 
	C517.905151,209.112717 517.997559,209.627563 518.275085,210.007019 
	C519.156494,211.212234 520.106934,212.366974 521.472778,214.079834 
M291.006165,425.794708 
	C287.071869,438.166901 289.962433,449.424438 296.622833,460.056335 
	C297.328522,461.182831 298.086975,462.524384 299.599854,462.413849 
	C301.338531,462.286865 302.018097,460.741302 302.478638,459.314545 
	C302.830933,458.223206 303.071747,457.000671 302.968597,455.872467 
	C302.062561,445.964539 299.030640,436.353912 298.804932,426.344482 
	C298.797791,426.027222 298.619720,425.706024 298.488892,425.400543 
	C297.736145,423.643433 296.700012,422.032898 294.623566,421.930603 
	C292.610626,421.831451 291.858215,423.471954 291.006165,425.794708 
M443.478424,418.388397 
	C440.264832,420.848663 439.331482,424.508362 439.324860,428.123566 
	C439.313202,434.465332 438.575317,440.655792 437.334290,446.849426 
	C436.711212,449.958984 436.929047,453.174286 438.276978,456.127106 
	C439.650330,459.135529 441.791321,459.418152 443.329773,456.520142 
	C449.350708,445.178223 452.562744,433.414490 447.393311,420.771271 
	C446.805450,419.333527 446.478302,417.334320 443.478424,418.388397 
M418.226013,562.711792 
	C417.534698,565.957581 416.961945,569.213318 417.208740,572.558594 
	C417.387726,574.985535 416.839386,577.958191 420.113281,578.640320 
	C423.121643,579.267029 424.929688,577.068420 426.590302,574.906128 
	C428.301239,572.678467 427.988525,569.473816 430.309082,567.161255 
	C433.180420,570.089355 435.236328,568.952209 436.849182,565.916870 
	C438.779541,562.283936 441.700378,558.696289 437.813690,554.749451 
	C434.205170,555.347534 435.194794,560.207031 431.689423,560.243103 
	C429.954254,559.103455 430.231781,557.241333 429.676575,555.736145 
	C427.987885,551.158203 424.655853,550.503601 421.487274,554.209778 
	C419.622070,556.391541 418.442505,558.937561 418.226013,562.711792 
M460.929443,433.946014 
	C460.745392,431.709686 460.803497,429.371826 458.412109,427.663696 
	C457.666595,428.646149 456.830414,429.328217 456.541077,430.193207 
	C452.896515,441.088562 450.979431,452.403015 448.667206,463.614746 
	C448.262543,465.576996 449.268188,467.502716 452.243011,468.995087 
	C459.593414,458.693207 461.229980,447.036591 460.929443,433.946014 
M280.370117,452.123566 
	C282.716522,459.025269 283.942108,466.521973 290.233490,471.713470 
	C292.289337,467.575684 283.936401,433.883301 280.077209,430.332733 
	C276.874268,437.509979 279.284515,444.418915 280.370117,452.123566 
M264.366486,249.695892 
	C255.796173,251.567642 247.071167,257.952393 244.481567,264.434174 
	C259.517548,254.158310 275.359589,253.301224 291.985779,259.669983 
	C284.702087,251.574966 275.861816,248.094925 264.366486,249.695892 
M463.121185,461.401611 
	C461.806946,466.900177 459.424683,472.202850 459.365326,478.323700 
	C468.880981,474.744507 474.871918,442.124207 467.531219,433.797180 
	C465.718567,442.998627 465.655853,452.001434 463.121185,461.401611 
M275.044617,472.414978 
	C276.495880,476.242584 278.007355,480.017029 283.445221,480.937469 
	C278.846222,467.052734 275.899628,452.871338 272.655029,438.701630 
	C270.063324,449.968201 270.892609,460.933929 275.044617,472.414978 
M446.797577,255.084732 
	C445.513153,256.206451 444.228699,257.328186 442.944275,258.449890 
	C451.054749,256.750305 458.782562,255.630753 466.919189,256.533081 
	C475.044891,257.434143 481.305939,262.116089 489.256073,266.702148 
	C477.667084,250.509872 463.242981,246.743332 446.797577,255.084732 
M195.507599,829.942322 
	C206.948669,830.973877 218.389725,832.005493 229.830795,833.037109 
	C219.082870,828.288940 183.856003,824.905151 170.448822,826.938538 
	C179.129715,827.988098 186.871994,828.924255 195.507599,829.942322 
M288.162109,65.814896 
	C287.936371,62.244007 287.710632,58.673119 287.473450,54.921585 
	C279.344604,66.406799 282.500336,77.558258 296.074371,85.042114 
	C293.319366,78.782921 290.178345,72.982559 288.162109,65.814896 
M535.538635,195.985001 
	C533.457642,194.246231 531.959717,191.700668 528.145386,190.702530 
	C529.618713,194.577499 531.025085,197.414124 530.397522,201.450195 
	C529.840576,205.032532 534.273682,209.074463 538.032227,212.038925 
	C538.738159,209.853516 535.790771,208.185562 538.138550,205.954971 
	C541.726318,206.884369 542.747070,211.477798 546.862427,213.093826 
	C544.417786,206.215240 539.945557,201.533142 535.538635,195.985001 
M528.041138,288.419403 
	C530.478088,289.473236 532.890869,290.589478 535.364563,291.548431 
	C536.280945,291.903687 537.377991,291.904968 538.152100,291.071625 
	C538.773315,290.402924 538.729492,289.583069 538.400146,288.752808 
	C536.613220,284.248352 526.002319,282.038849 521.815918,285.652771 
	C523.771301,286.514160 525.569031,287.306061 528.041138,288.419403 
M424.237701,175.434570 
	C427.231873,178.109940 429.980042,177.153259 432.496765,174.744186 
	C434.124847,173.185760 434.322266,171.227478 433.091644,169.349930 
	C431.722412,167.260880 429.685883,166.696747 427.497192,167.883469 
	C424.820557,169.334793 422.220734,171.004288 424.237701,175.434570 
M299.033447,176.385376 
	C301.817505,177.049454 303.930908,175.700851 304.401306,173.271683 
	C304.986755,170.248520 301.925110,169.330048 299.923828,168.008514 
	C298.383698,166.991486 296.813751,167.012985 295.452789,168.509735 
	C294.118378,169.977280 294.306671,171.492569 295.151764,173.096283 
	C295.882843,174.483566 297.053528,175.367371 299.033447,176.385376 
M538.701233,192.452805 
	C541.345642,197.158066 544.572083,201.450119 548.140320,205.931229 
	C546.098816,199.940155 541.119812,192.591278 537.802795,190.546478 
	C538.022400,191.044846 538.221069,191.495743 538.701233,192.452805 
M590.759521,330.661926 
	C588.747314,328.339508 586.735168,326.017090 584.722961,323.694641 
	C586.821472,328.335876 589.288452,332.637756 594.169128,335.475128 
	C593.984253,333.015930 592.195923,332.394348 590.759521,330.661926 
z"/>
<path fill="#000000" opacity="1.000000" stroke="none" 
	d="
M645.400146,712.407227 
	C641.891968,717.069092 641.236816,722.667480 638.161377,727.855896 
	C634.033325,714.786499 627.021973,704.651550 612.748840,700.047852 
	C618.655334,694.836243 625.543457,693.310059 629.628906,687.830322 
	C633.637146,682.454163 634.764221,675.817688 637.489807,669.744202 
	C640.874329,671.176147 640.700073,673.907349 641.291809,675.920715 
	C644.141479,685.617737 649.821899,692.701111 659.276184,696.584412 
	C660.633911,697.142151 662.374451,697.499512 662.240173,699.445251 
	C662.103577,701.424866 660.107117,701.348206 658.843933,701.886353 
	C653.526184,704.151672 648.999573,707.375671 645.400146,712.407227 
z"/>
<path fill="#000000" opacity="1.000000" stroke="none" 
	d="
M80.736504,697.715088 
	C87.275269,688.131042 87.322304,688.095459 94.160324,697.129822 
	C97.653694,701.745300 102.562614,704.448364 107.266602,707.025208 
	C107.498878,708.863525 106.422905,709.415527 105.426086,710.020264 
	C99.375977,713.690735 94.028183,718.061707 90.772263,724.556763 
	C89.798805,726.498718 87.991753,728.574341 86.318954,726.192688 
	C81.341423,719.106018 75.747185,712.764709 67.397301,708.208069 
	C72.165375,704.275024 77.331451,702.329895 80.736504,697.715088 
z"/>
<path fill="#000000" opacity="1.000000" stroke="none" 
	d="
M165.968536,229.966095 
	C174.635086,218.285065 184.600708,208.725128 198.258408,202.790787 
	C197.281204,208.711227 170.550278,233.993973 163.794373,235.946457 
	C162.697250,233.424957 164.783478,232.026169 165.968536,229.966095 
z"/>
<path fill="#000000" opacity="1.000000" stroke="none" 
	d="
M430.718079,290.310974 
	C427.148865,289.946045 424.025879,289.481201 420.886810,289.308319 
	C412.905701,288.868744 405.782562,290.907013 400.093475,296.869141 
	C399.684326,297.297943 399.002167,297.466187 397.644348,298.173889 
	C397.340271,293.136017 399.422119,289.843658 402.538879,287.191132 
	C404.969238,285.122772 407.977478,283.924805 411.213959,283.770111 
	C420.654938,283.318817 429.591888,285.714050 438.373260,288.844269 
	C438.711884,288.964966 438.871277,289.588501 439.269318,290.226288 
	C436.465057,292.269501 433.776611,290.390869 430.718079,290.310974 
z"/>
<path fill="#000000" opacity="1.000000" stroke="none" 
	d="
M391.057678,640.921631 
	C377.706146,635.302490 365.247925,638.129883 352.922485,643.180725 
	C350.457336,644.190918 347.925110,645.037537 345.461304,646.050781 
	C332.622894,651.330444 322.455597,647.404236 314.114166,637.042847 
	C306.020050,626.988770 299.443726,616.034851 294.524994,604.096375 
	C294.285156,603.514282 293.967773,602.829224 294.981903,602.063171 
	C298.831909,605.761963 300.727051,610.804138 303.600189,615.157776 
	C308.462128,622.525085 313.243988,629.906006 319.694031,636.080200 
	C328.274353,644.293640 336.077881,645.993591 347.011383,641.312073 
	C351.287811,639.480957 355.330231,637.110840 359.532318,635.096985 
	C370.405548,629.885742 381.116302,630.465027 391.649841,636.148499 
	C394.433502,637.650452 397.220886,639.146484 400.027100,640.605652 
	C410.652100,646.130798 419.247589,644.559143 427.378815,635.540161 
	C430.835114,631.706482 434.224091,627.813293 437.004578,623.429138 
	C437.945404,621.945679 438.777527,620.243225 440.836731,619.550537 
	C441.079193,620.180176 441.486267,620.696106 441.364319,620.999207 
	C437.698914,630.109131 432.315491,638.064148 424.636139,644.215637 
	C419.004364,648.726929 412.447296,649.414368 405.725983,646.977966 
	C400.879761,645.221252 396.180206,643.060059 391.057678,640.921631 
z"/>
<path fill="#000000" opacity="1.000000" stroke="none" 
	d="
M345.481995,623.392822 
	C349.548737,621.787598 353.212708,620.173767 356.993378,618.908630 
	C370.799042,614.288818 384.185822,615.691467 397.281708,621.780701 
	C402.807892,624.350220 408.504639,626.552917 414.435486,629.053772 
	C412.958832,631.570435 411.019745,631.155884 409.102509,630.818909 
	C400.263397,629.265320 391.389984,627.882812 382.593536,626.116882 
	C372.470001,624.084473 362.718414,626.153259 352.991791,628.391602 
	C347.606201,629.631042 342.199036,630.342957 336.704590,630.592468 
	C335.538147,630.645325 334.325714,630.795227 333.729980,628.890076 
	C337.490417,627.127075 341.311584,625.335632 345.481995,623.392822 
z"/>
<path fill="#000000" opacity="1.000000" stroke="none" 
	d="
M394.969604,702.099060 
	C391.786224,700.222961 388.798279,698.710388 386.070251,696.822266 
	C377.618988,690.973450 369.303070,691.738281 360.908905,696.899109 
	C355.812256,700.032593 350.691895,703.135559 345.479279,706.069458 
	C342.226318,707.900452 338.709930,709.011230 334.473572,708.512390 
	C334.958099,707.640503 335.081848,707.026245 335.415436,706.875061 
	C343.100739,703.392883 349.037506,697.416199 355.829681,692.664185 
	C366.903046,684.916870 381.274597,684.854858 392.280090,692.588318 
	C398.728485,697.119629 404.925537,702.008545 410.982727,707.321716 
	C404.844971,708.441772 400.273468,704.678101 394.969604,702.099060 
z"/>
<path fill="#000000" opacity="1.000000" stroke="none" 
	d="
M474.928406,598.016479 
	C478.266571,591.718323 479.601868,584.741150 485.152527,580.005188 
	C477.317871,606.744629 466.967773,632.442322 454.542938,657.377197 
	C453.629822,650.158203 457.591614,644.277039 459.541321,637.901062 
	C461.628387,631.075867 464.291016,624.419128 466.874878,617.755737 
	C469.398041,611.248718 472.138824,604.826111 474.928406,598.016479 
z"/>
<path fill="#000000" opacity="1.000000" stroke="none" 
	d="
M364.111359,642.805054 
	C377.005066,639.283081 389.386932,641.668518 397.042023,649.754456 
	C382.422699,646.086243 367.804596,645.912170 352.967163,649.073486 
	C355.806610,645.415222 360.006927,644.584412 364.111359,642.805054 
z"/>
<path fill="#000000" opacity="1.000000" stroke="none" 
	d="
M402.319397,690.678223 
	C405.869720,693.570984 409.604462,695.711365 411.953278,699.525330 
	C401.874054,697.066895 395.564819,689.112366 387.226044,682.997681 
	C391.648163,682.470947 394.325867,683.917542 402.319397,690.678223 
z"/>
<path fill="#000000" opacity="1.000000" stroke="none" 
	d="
M350.562653,687.509094 
	C352.925812,685.855042 354.684814,683.646301 358.979858,684.433838 
	C352.182251,690.505371 346.393311,696.126099 338.842865,699.329651 
	C338.430420,698.830444 338.017944,698.331238 337.605469,697.832031 
	C341.827240,694.461304 346.048981,691.090637 350.562653,687.509094 
z"/>
<path fill="#000000" opacity="1.000000" stroke="none" 
	d="
M420.106873,782.166321 
	C426.917236,771.005676 434.485962,760.938782 444.447296,752.794861 
	C437.216553,766.097168 428.041595,777.962463 418.088715,790.607422 
	C417.152802,786.575989 418.876007,784.620850 420.106873,782.166321 
z"/>
<path fill="#000000" opacity="1.000000" stroke="none" 
	d="
M131.573181,461.499451 
	C130.177063,460.391052 128.628845,459.892731 128.388153,458.232483 
	C129.694138,456.546722 131.482468,456.939056 133.043213,457.028198 
	C136.790024,457.242157 139.788208,455.941895 142.308090,453.220795 
	C143.516022,451.916351 144.865234,450.136292 146.891342,451.411560 
	C148.932114,452.696136 149.152176,454.951538 148.663498,457.166199 
	C147.265808,463.500458 141.141891,466.478271 135.319839,463.669983 
	C134.133560,463.097778 133.026031,462.362274 131.573181,461.499451 
z"/>
<path fill="#000000" opacity="1.000000" stroke="none" 
	d="
M105.226273,428.744354 
	C104.992287,426.565277 104.879280,424.803131 107.321213,422.814423 
	C108.948326,432.454102 113.418121,439.925629 120.827583,446.405701 
	C113.295090,446.601257 106.982353,438.964020 105.226273,428.744354 
z"/>
<path fill="#000000" opacity="1.000000" stroke="none" 
	d="
M579.120361,453.003937 
	C583.271118,458.141266 588.840515,456.698151 594.238953,456.358154 
	C592.270203,460.878845 586.044189,464.829346 582.174072,464.257355 
	C577.885559,463.623596 575.730591,460.515289 574.396301,456.725403 
	C573.809204,455.057800 573.899597,453.323730 575.266479,452.109741 
	C576.552246,450.967804 577.723267,452.114929 579.120361,453.003937 
z"/>
<path fill="#000000" opacity="1.000000" stroke="none" 
	d="
M612.001953,430.145447 
	C612.891907,428.635498 612.960266,426.847931 614.880981,426.698364 
	C617.485718,433.712097 610.410400,444.809204 601.371338,446.362000 
	C605.083801,440.613647 610.287048,436.629883 612.001953,430.145447 
z"/>
</svg>